<svg version="1.1" id="OpenSpeedtest"
	xmlns="http://www.w3.org/2000/svg"
	xmlns:xlink="http://www.w3.org/1999/xlink"
    class="openSpeedtestApp">
	<symbol id="logo" viewBox="0 0 262.79 50.38">
		<a>
  <path d="M0,0 L7,0 L7,25 L4,31 L0,34 L-75,34 L-75,142 L-5,141 L-2,139 L-1,135 L0,65 L7,65 L7,139 L5,146 L1,149 L-82,149 L-82,28 L-9,27 L-2,25 L-1,22 Z M43,0 L46,0 L46,40 L43,40 Z M129,0 L133,0 L134,3 L133,5 L129,5 L128,1 Z M112,1 L116,1 L116,9 L124,9 L124,13 L116,13 L117,34 L118,36 L125,36 L126,39 L123,41 L116,41 L113,38 L112,34 L112,13 L107,13 L107,9 L112,9 Z M142,1 L146,1 L146,9 L153,9 L153,13 L146,13 L147,36 L154,36 L154,40 L152,41 L146,41 L142,37 L142,13 L137,13 L137,9 L142,9 Z M192,1 L195,1 L195,9 L203,9 L203,13 L195,13 L196,33 L197,36 L204,36 L204,40 L202,41 L195,41 L192,37 L192,13 L187,13 L187,9 L192,9 Z M53,9 L58,10 L61,9 L70,9 L76,14 L77,17 L77,40 L73,40 L72,18 L68,14 L61,14 L58,17 L57,40 L53,40 Z M89,9 L99,9 L105,12 L103,16 L98,14 L90,14 L88,18 L88,20 L97,23 L103,26 L105,29 L105,35 L101,40 L98,41 L89,41 L81,37 L83,33 L90,36 L97,36 L100,34 L99,30 L90,26 L84,22 L83,15 L87,10 Z M129,9 L133,9 L133,40 L129,40 Z M158,9 L162,9 L163,31 L165,35 L167,36 L174,36 L177,35 L178,30 L179,9 L183,9 L183,40 L178,39 L175,41 L166,41 L160,37 L158,30 Z M218,9 L228,9 L234,13 L238,19 L238,30 L234,37 L227,41 L218,41 L211,37 L207,30 L207,20 L211,13 Z M219,13 L213,17 L211,21 L211,29 L215,35 L219,37 L226,37 L232,33 L234,29 L234,20 L230,15 L226,13 Z M42,54 L51,54 L51,86 L70,86 L70,95 L42,95 Z M-61,63 L-47,63 L-44,66 L-44,77 L-50,75 L-58,75 L-63,77 L-63,65 Z M-31,63 L-16,63 L-14,65 L-14,77 L-19,75 L-27,75 L-33,77 L-33,66 Z M81,63 L92,63 L97,66 L100,72 L100,95 L92,95 L92,93 L88,95 L78,95 L73,91 L72,89 L72,81 L76,76 L82,74 L91,75 L87,71 L77,73 L74,68 L74,66 Z M83,81 L80,84 L82,88 L88,88 L92,84 L92,82 L90,81 Z M168,63 L178,63 L183,66 L186,70 L187,73 L187,94 L186,95 L179,95 L177,94 L175,95 L165,95 L159,90 L158,84 L160,79 L165,75 L174,74 L178,75 L176,72 L171,71 L164,73 L161,68 L162,65 Z M170,81 L167,83 L168,87 L169,88 L175,88 L178,86 L178,82 L176,81 Z M105,64 L113,64 L114,83 L116,86 L122,86 L124,82 L125,64 L133,64 L133,95 L125,95 L124,93 L121,95 L112,95 L106,90 L105,87 Z M152,63 L157,63 L157,71 L150,73 L148,77 L147,95 L139,95 L138,94 L138,64 L147,64 L150,64 Z M-60,101 L-55,102 L-41,105 L-30,104 L-18,101 L-17,102 L-17,107 L-29,111 L-49,111 L-59,108 L-60,107 Z M42,108 L73,108 L73,116 L51,116 L51,124 L70,124 L71,125 L71,132 L70,133 L51,133 L51,149 L42,149 Z M219,110 L228,110 L228,118 L234,118 L234,125 L228,125 L229,141 L234,141 L235,147 L232,149 L224,149 L220,145 L219,143 L219,125 L215,125 L215,118 L219,118 Z M240,110 L249,110 L249,118 L255,118 L255,125 L249,125 L250,141 L255,141 L256,147 L254,149 L245,149 L241,145 L240,143 L240,125 L236,125 L236,118 L240,118 Z M108,117 L116,117 L122,120 L126,126 L127,129 L127,136 L106,136 L109,140 L116,140 L122,139 L125,143 L123,147 L118,149 L107,149 L101,145 L97,139 L96,133 L98,125 L103,119 Z M110,125 L106,129 L118,129 L115,125 Z M137,117 L146,117 L153,120 L154,122 L151,127 L139,125 L139,128 L148,130 L153,133 L154,135 L154,144 L148,149 L136,149 L130,146 L129,142 L132,138 L141,141 L145,139 L133,134 L130,130 L130,123 L135,118 Z M165,117 L174,117 L181,120 L180,125 L179,127 L167,126 L169,128 L179,132 L182,136 L182,142 L179,147 L175,149 L163,149 L156,145 L158,140 L159,138 L168,141 L173,141 L173,138 L164,136 L158,132 L157,125 L160,120 Z M194,117 L203,117 L209,120 L212,126 L212,149 L204,149 L204,147 L200,149 L190,149 L185,145 L184,143 L184,135 L189,130 L197,128 L203,129 L201,126 L193,126 L189,127 L186,122 L186,120 Z M203,129 Z M196,135 L192,138 L194,142 L201,142 L204,138 L204,136 Z M270,117 L279,117 L287,122 L290,127 L290,139 L286,145 L280,149 L269,149 L262,145 L258,138 L258,128 L262,122 L267,118 Z M271,125 L267,129 L266,135 L269,140 L275,142 L280,139 L282,135 L281,129 L277,125 Z M90,117 L95,117 L95,125 L87,127 L86,131 L85,149 L77,149 L76,148 L76,118 L85,118 L88,118 Z " fill="#ACACAC" transform="translate(82,0)"/>
</g>

			<rect fill="transparent" x="0" y="0" width="265" height="60" />
			<title>Instituto Laura</title>
		</a>
	</symbol>
	<symbol id="mainGaugebg" viewBox="0 0 295.93 270.18">
		<path fill="none" d="M64.32,256.41a137,137,0,1,1,192.09-24.8l-.07.09a134.45,134.45,0,0,1-24.71,24.71" />
	</symbol>
	<symbol id="mainGaugeBlue" viewBox="0 0 295.93 270.18">
		<path fill="none" d="M64.32,256.41a137,137,0,1,1,192.09-24.8l-.07.09a134.45,134.45,0,0,1-24.71,24.71" />
	</symbol>
	<symbol id="mainGaugeWhite" viewBox="0 0 295.93 270.18">
		<path fill="none" d="M64.32,256.41a137,137,0,1,1,192.09-24.8l-.07.09a134.45,134.45,0,0,1-24.71,24.71" />
	</symbol>
	<symbol id="oDoMeter" viewBox="0 0 295.93 270.18">
		<text transform="translate(76.34 264.28) scale(0.9 1)">0</text>
		<text transform="translate(23.81 164.6) scale(0.9 1)">.5</text>
		<text transform="translate(50.01 80.11) scale(0.9 1)">1</text>
		<text transform="translate(140.58 36.04) scale(0.9 1)">10</text>
		<text transform="translate(220.43 79.11) scale(0.9 1)">100</text>
		<text transform="translate(246.71 164.6) scale(0.9 1)">500</text>
		<text id="oDoTopSpeed" class="oDoTop-Speed" transform="translate(220.71 265.99) scale(0.9 1)">1000+</text>
		<text id="oDoLiveSpeed" class="oDoLive-Speed" transform="translate(150 150) scale(1 1)">...</text>
		<text id="oDoLiveStatus" class="oDoLive-Status" transform="translate(151 170) scale(1 1)"></text>
	</symbol>
	<symbol id="progressBar" viewBox="0 0 293.53 18.38">
		<defs>
			<symbol id="personLeft" class="uiBg" viewBox="0 0 33.46 30.9">
				<path
            d="M32.7,4.8a7.81,7.81,0,0,1-4.1,2.8,61.42,61.42,0,0,0-5.7,2.3s-.1.3-.4,1.3-.9.6-.9.6v1.8a6.15,6.15,0,0,1,1.2,1.8,14.72,14.72,0,0,0,.8,1.7h.5c.5,0,.7,1.9.8,3.2s-1.1.8-1.1.8v3.2c0,1.9-.5,2.8-2.3,4.8s-4.7,1.8-4.7,1.8-3.1.1-4.7-1.8-2.3-3-2.3-4.8V21.1s-1.2.5-1.1-.8.3-3.2.8-3.2H10s.3-.6.8-1.7A9.62,9.62,0,0,1,12,13.6V11.8s-.8.4-.9-.6a2.26,2.26,0,0,0-.4-1.3A61.42,61.42,0,0,0,5,7.6,7.41,7.41,0,0,1,.9,4.8C.2,3.6,0,0,0,0H33.4A11.7,11.7,0,0,1,32.7,4.8Z" />
			</symbol>
			<symbol id="progressElement" class="uiBg" viewBox="0 0 409.31 10.48">
				<line id="progressbg" class="progressbg" x1="5" y1="5" x2="405" y2="5"></line>
			</symbol>
			<symbol id="doc" class="uiBg" viewBox="0 0 36.8 31.6">
				<path d="M0,31.6V21.9H36.8v9.7Zm15.1-6H5.2V28h9.9Zm16.5.3a.9.9,0,1,0,.9.9A.9.9,0,0,0,31.6,25.9Z" />
				<path d="M0,20.6V11.1H36.8v9.5Zm15.1-6H5.2v2.2h9.9Zm16.5.2a.9.9,0,1,0,.9.9A.9.9,0,0,0,31.6,14.8Z" />
				<path d="M0,9.5V0H36.8V9.5ZM15.1,3.6H5.2V5.9h9.9Zm16.5.2a.9.9,0,1,0,.9.9A.9.9,0,0,0,31.6,3.8Z" />
			</symbol>
		</defs>
		<g id="Progress">
			<g>
				<use width="33.46" height="30.9" transform="matrix(0.57, 0, 0, -0.57, 0, 17.49)" xlink:href="#personLeft" />
				<use width="409.31" height="10.48" transform="matrix(0.57, 0, 0, -0.57, 28.35, 13.39)"
            xlink:href="#progressElement" />
				<use width="36.8" height="31.6" transform="matrix(0.58, 0, 0, -0.58, 272.2, 18.38)" xlink:href="#doc" />
			</g>
		</g>
	</symbol>
	<symbol id="upSymbol" viewBox="0 0 32.21 41.62">
		<g>
			<path d="M2.71,26H9.55V38.55a2.93,2.93,0,0,0,2.78,3.07h7.13a2.94,2.94,0,0,0,2.78-3.07V26h6.84L15.89,8.8Z" />
			<rect width="32.21" height="3.41" />
		</g>
	</symbol>
	<symbol id="downSymbol" viewBox="0 0 32.21 41.62">
		<g>
			<path
          d="M29.51,15.62H22.66V3.08A2.94,2.94,0,0,0,19.88,0H12.76A2.94,2.94,0,0,0,10,3.08V15.62H3.14l13.18,17.2Z" />
			<rect y="38.21" width="32.21" height="3.41" />
		</g>
	</symbol>
	<symbol id="resultCard" viewBox="0 0 278.13 85.49">
		<g>
			<rect width="278.13" height="85.49" />
		</g>
	</symbol>
	<symbol id="resultCardMob" viewBox="0 0 88.1 65.79">
		<g>
			<rect width="88.1" height="65.79" />
		</g>
	</symbol>
	<symbol id="downloadRc1" viewBox="0 0 66.93 13.85">
		<g>
			<text transform="translate(0 10.52)" class="rtext">DOWNLOAD</text>
		</g>
	</symbol>
	<symbol id="uploadRc2" viewBox="0 0 46.73 13.85">
		<g>
			<text transform="translate(0 10.52)" class="rtext">UPLOAD</text>
		</g>
	</symbol>
	<symbol id="pingSymbol" viewBox="0 0 14.28 14.28">
		<g>
			<path
          d="M13.92.64a.55.55,0,0,0-.65.13L12.06,2A7.21,7.21,0,0,0,9.79.52a7,7,0,0,0-5.42,0,7,7,0,0,0-3.8,3.8,7,7,0,0,0,0,5.54,7.23,7.23,0,0,0,1.52,2.28,7.25,7.25,0,0,0,2.28,1.53,6.89,6.89,0,0,0,2.77.56,7.12,7.12,0,0,0,5.5-2.57.31.31,0,0,0,.07-.21.23.23,0,0,0-.09-.19L11.35,10a.36.36,0,0,0-.24-.09.27.27,0,0,0-.21.11,4.61,4.61,0,0,1-1.67,1.37,4.68,4.68,0,0,1-2.09.48,4.75,4.75,0,0,1-3.36-1.39A4.84,4.84,0,0,1,2.76,9a4.68,4.68,0,0,1-.38-1.85A4.63,4.63,0,0,1,2.76,5.3,4.74,4.74,0,0,1,5.3,2.76a4.72,4.72,0,0,1,5.09.9L9.1,4.94A.54.54,0,0,0,9,5.58.56.56,0,0,0,9.52,6h4.17a.61.61,0,0,0,.42-.17.57.57,0,0,0,.17-.42V1.19a.56.56,0,0,0-.36-.55Z"
          style="fill: #feac14" />
		</g>
	</symbol>
	<symbol id="pingRc3" viewBox="0 0 28.43 13.85">
		<g>
			<text transform="translate(0 10.52)" class="rtext">PING</text>
		</g>
	</symbol>
	<symbol id="jitterRc3" viewBox="0 0 39.95 13.85">
		<text class="rtext" transform="translate(0 9.64)">JITTER</text>
	</symbol>
	<symbol id="downResultC1" viewBox="0 0 53.35 39.8">
		<text id="downResult" transform="translate(0 20.07)" class="rtextnum">---</text>
		<text x="0" y="35" class="rtextmbms">Mbps</text>
	</symbol>
	<symbol id="upResultC2" viewBox="0 0 53.35 39.8">
		<text id="upRestxt" transform="translate(0 20.07)" class="rtextnum">---</text>
		<text x="0" y="36.09" class="rtextmbms">Mbps</text>
	</symbol>
	<symbol id="pingResultC3" viewBox="0 0 40.01 39.79">
		<text transform="translate(0 20.07)" id="pingResult" class="rtextnum">--</text>
		<text x="0" y="35" class="rtextmbms">ms</text>
	</symbol>
	<symbol id="jitterResultC3" viewBox="0 0 21.99 39.79">
		<text id="jitterDesk" transform="translate(2.33 20.07)" class="rtextnum">--</text>
		<text x="2" y="35" xml:space="preserve" class="rtextmbms">ms</text>
	</symbol>
	<symbol style="fill: url(#gradient)" id="graphc1" viewBox="0 0 200 100">
		<polygon
        points="0,50 0.00,16.91 3.51,43.13 7.03,8.17 10.54,23.80 14.05,49.71 17.57,47.57 21.08,5.73 24.59,18.61 28.11,10.03 31.62,29.77 35.14,42.97 38.65,42.85 42.16,44.34 45.68,8.71 49.19,2.56 52.70,16.48 56.22,1.10 59.73,47.04 63.24,34.75 66.76,48.00 70.27,23.19 73.78,11.62 77.30,15.34 80.81,49.09 84.32,42.92 87.84,42.99 91.35,38.99 94.86,5.15 98.38,47.27 101.89,49.66 105.41,16.49 108.92,29.03 112.43,19.89 115.95,47.80 119.46,48.13 122.97,30.92 126.49,17.38 130.00,9.27 130,50"
        class="line"></polygon>
	</symbol>
	<symbol style="fill: url(#gradient)" id="graphc2" viewBox="0 0 200 100">
		<polygon
        points="0,50 0.00,16.91 3.51,43.13 7.03,8.17 10.54,23.80 14.05,49.71 17.57,47.57 21.08,5.73 24.59,18.61 28.11,10.03 31.62,29.77 35.14,42.97 38.65,42.85 42.16,44.34 45.68,8.71 49.19,2.56 52.70,16.48 56.22,1.10 59.73,47.04 63.24,34.75 66.76,48.00 70.27,23.19 73.78,11.62 77.30,15.34 80.81,49.09 84.32,42.92 87.84,42.99 91.35,38.99 94.86,5.15 98.38,47.27 101.89,49.66 105.41,16.49 108.92,29.03 112.43,19.89 115.95,47.80 119.46,48.13 122.97,30.92 126.49,17.38 130.00,9.27 130,50"
        class="line2"></polygon>
	</symbol>
	<symbol id="jitterMob" viewBox="0 0 58.1 35.77">
		<text id="pingMobres" transform="translate(11.07 18.05)" class="rtextnum">--</text>
		<text x="-8" y="33.46" class="rtextmbms">Jitter</text>
		<text id="JitterResultMon" x="17" y="33.46" class="jitter-Mob">--</text>
		<text id="JitterResultms" x="36" y="33.46" class="rtextmbms">ms</text>
	</symbol>
	<symbol id="settings" viewBox="0 0 100 125">
		<rect fill="transparent" x="0" y="25" width="100" height="50" />
		<path d="M36.43,29.64,9.29,50,36.43,70.36v6.78L2.5,56.79V43.21L36.43,22.86Z" />
		<path d="M63.57,70.36,90.71,50,63.57,29.64V22.86L97.5,43.21V56.79L63.57,77.14Z" />
		<circle cx="29.64" cy="50" r="6.79" />
		<circle cx="50" cy="50" r="6.79" />
		<circle cx="70.36" cy="50" r="6.79" />
	</symbol>
	<symbol id="playButton" style="fill: #eaeaea" viewBox="0 0 191.255 191.255">
		<rect width="180" height="90" rx="10" ry="10" class="startButton" />
		<text class="buttonTxt" x="90" y="60">Iniciar</text>
	</symbol>
	<symbol id="introProgress" viewBox="0 0 409.31 10.48">
		<line x1="5" y1="5" x2="405" y2="5"></line>
	</symbol>
	<symbol id="ConnectError" viewBox="0 0 489.6 489.6">
		<a>
			<g>
				<g>
					<path d="M179.6,235.6c-33.7,10.3-65.5,28.5-92.2,55.1l46.6,46.6c13.9-13.9,30.1-24.8,47.6-32.5L179.6,235.6z" />
					<path d="M175.8,109C111.3,122,49.9,153.4,0,203.3l46.6,46.6c37.5-37.5,83.1-61.9,131.2-73.7L175.8,109z" />
					<path d="M313.8,109l-2,67.3c48.1,11.8,93.7,36.2,131.2,73.7l46.6-46.6C439.8,153.4,378.3,122,313.8,109z" />
					<path d="M307.9,304.8c17.5,7.7,33.7,18.6,47.7,32.6l46.6-46.6c-26.6-26.6-58.5-44.9-92.2-55.2L307.9,304.8z" />
				</g>
				<circle cx="244.8" cy="403.2" r="40" />
				<g>
					<path d="M260.6,330.4h-31.7c-8.3,0-15.1-6.6-15.3-14.9L206,62.2c-0.3-8.6,6.7-15.8,15.3-15.8h47c8.6,0,15.6,7.1,15.3,15.8
                 l-7.7,253.3C275.7,323.8,268.9,330.4,260.6,330.4z" />
				</g>
			</g>
			<title>Erro na Rede</title>
		</a>
	</symbol>
	<symbol class="Your-IP" viewBox="0 0 300 299.12">
		<text id="YourIP" transform="translate(140 228) scale(.8 .8)">Teste de velocidade da internet</text>
	</symbol>
	<symbol id="light" viewBox="0 0 512 512">
		<g>
			<path
          d="M256,108.936c-81.091,0-147.064,65.973-147.064,147.064S174.909,403.064,256,403.064S403.064,337.091,403.064,256
        S337.091,108.936,256,108.936z M256,370.383c-63.071,0-114.383-51.312-114.383-114.383c0-63.071,51.312-114.383,114.383-114.383
        c63.071,0,114.383,51.312,114.383,114.383C370.383,319.071,319.071,370.383,256,370.383z"
        />
			<path
          d="M256,83.708c9.024,0,16.34-7.316,16.34-16.34V16.34C272.34,7.316,265.024,0,256,0c-9.024,0-16.34,7.316-16.34,16.34
        v51.027C239.66,76.391,246.976,83.708,256,83.708z"
        />
			<path
          d="M256,428.292c-9.024,0-16.34,7.316-16.34,16.34v51.027c0,9.024,7.316,16.34,16.34,16.34c9.024,0,16.34-7.316,16.34-16.34
        v-51.027C272.34,435.609,265.024,428.292,256,428.292z"
        />
			<path
          d="M111.062,134.171c6.38,6.381,16.727,6.381,23.109,0c6.381-6.38,6.381-16.727,0-23.109L98.089,74.981
        c-6.38-6.381-16.727-6.381-23.109,0c-6.381,6.38-6.381,16.727,0,23.109L111.062,134.171z"
        />
			<path
          d="M400.938,377.829c-6.38-6.381-16.727-6.38-23.109,0c-6.381,6.38-6.381,16.727,0,23.109l36.081,36.082
        c6.38,6.382,16.727,6.382,23.109,0c6.382-6.38,6.382-16.727,0-23.109L400.938,377.829z"
        />
			<path
          d="M83.708,256c0-9.024-7.316-16.34-16.34-16.34H16.34C7.316,239.66,0,246.976,0,256c0,9.024,7.316,16.34,16.34,16.34
        h51.027C76.391,272.34,83.708,265.024,83.708,256z"
        />
			<path
          d="M495.66,239.66h-51.027c-9.024,0-16.34,7.316-16.34,16.34c0,9.024,7.316,16.34,16.34,16.34h51.027
        c9.024,0,16.34-7.316,16.34-16.34C512,246.976,504.684,239.66,495.66,239.66z"
        />
			<path
          d="M111.062,377.829l-36.081,36.082c-6.381,6.382-6.381,16.727,0,23.109c6.38,6.382,16.727,6.383,23.109,0l36.081-36.082
        c6.381-6.381,6.381-16.727,0-23.109C127.79,371.447,117.443,371.447,111.062,377.829z"
        />
			<path
          d="M400.938,134.171l36.081-36.082c6.382-6.381,6.382-16.727,0-23.109c-6.38-6.381-16.727-6.381-23.109,0l-36.081,36.082
        c-6.381,6.381-6.381,16.727,0,23.109C384.21,140.552,394.557,140.553,400.938,134.171z"
        />
		</g>
		<rect  fill="none" width="512" cursor="pointer" pointer-events="visible" height="512"></rect>
		</symbol>
		<symbol id="dark" viewBox="0 0 1024 1024">
			<path
        d="M524.8 938.666667h-4.266667a439.893333 439.893333 0 0 1-313.173333-134.4 446.293333 446.293333 0 0 1-11.093333-597.333334 432.213333 432.213333 0 0 1 170.666666-116.906666 42.666667 42.666667 0 0 1 45.226667 9.386666 42.666667 42.666667 0 0 1 10.24 42.666667 358.4 358.4 0 0 0 82.773333 375.893333 361.386667 361.386667 0 0 0 376.746667 82.773334 42.666667 42.666667 0 0 1 54.186667 55.04A433.493333 433.493333 0 0 1 836.266667 810.666667a438.613333 438.613333 0 0 1-311.466667 128z"
      />
		</symbol>
		<a id="resultsData">
			<svg class="Desktop" viewBox="0 0 586 346">
				<title id="title1">Teste velocidade de internet</title>
				<g id="UI-Desk">
					<use id="mainGaugebg-Desk" class="main-Gaugebg" xlink:href="#mainGaugebg" x="10.28" y="36.11" width="273.94" height="245.39"></use>
					<use id="mainGaugeBlue-Desk" class="main-GaugeBlue" xlink:href="#mainGaugeBlue" x="10.28" y="36.11" width="273.94" height="245.39"></use>
					<use id="mainGaugeWhite-Desk" class="main-GaugeWhite" xlink:href="#mainGaugeWhite" x="10.28" y="36.11" width="273.94" height="245.39"></use>
					<use xlink:href="#resultCard" class="Cards" x="307.4" y="31" width="278.1" height="85.5">
						<title id="title1">A velocidade de download é a rapidez com que você pode extrair dados do servidor para você na forma de imagens, vídeos, texto e muito mais. Atividades como ouvir música no Spotify, baixar arquivos grandes ou transmitir vídeos no Netflix exigem que você baixe dados.</title>
					</use>
					<use xlink:href="#resultCard" class="Cards" x="307.4" y="129.3" width="278.1" height="85.5">
						<title id="title1">A velocidade de upload é a rapidez com que você envia dados seus para outras pessoas na forma de imagens, vídeos, texto e muito mais. Atividades como fazer upload para o YouTube ou enviar e-mail, jogar jogos ao vivo como PubG, ligar para um amigo por voz e vídeo exigem velocidades de upload rápidas para que você possa enviar dados para o servidor de outra pessoa.</title>
					</use>
					<use xlink:href="#resultCard" class="Cards" x="307.4" y="228.5" width="278.1" height="85.5">
						<title id="title1">O "tempo de ida e volta" do ping é mais ou menos bem definido como o atraso da rede do ponto A ao B e vice-versa. Esta é a soma de todos os atrasos de codificação, enfileiramento, processamento, decodificação e propagação em ambas as direções. Essencialmente, é o atraso quando A espera uma resposta de B para uma solicitação que requer muito pouco processamento. Um ping rápido significa uma conexão mais responsiva, especialmente em aplicações onde o tempo é tudo (como videogames). O ping é medido em milissegundos (ms). Jitter é simplesmente a diferença no Ping "Round-trip time" . Em outras palavras, o jitter mede a diferença de tempo no tempo entre chegadas dos pacotes. O Jitter ajuda a diagnosticar a estabilidade da conexão com a Internet. Quanto maior o valor do jitter, pior será a estabilidade da conexão.</title>
					</use>
					<use id="downSymbolDesk" xlink:href="#downSymbol" class="Desktop" x="133" y="99" width="32.21" height="41.62"></use>
					<use id="upSymbolDesk" xlink:href="#upSymbol" class="Desktop" x="133" y="99" width="32.21" height="41.62"></use>
					<use id="ConnectErrorDesk" xlink:href="#ConnectError" class="ConnectError" x="135" y="107.8" width="32.21" height="41.62"></use>
					<use class="oDo-Meter" xlink:href="#oDoMeter" x="10.28" y="36.11" width="273.94" height="245.39"></use>
					<use xlink:href="#progressBar" x="1" y="295" width="293.53" height="18.38"></use>
					<use id="progressStatus-Desk" class="intro-Progress" xlink:href="#introProgress" x="29" y="295" width="234" height="21"></use>
					<use xlink:href="#downloadRc1" x="335.05" y="50.28" width="67" height="16">
						<title id="title1">A velocidade de download é medida em megabits por segundo (Mbps).</title>
					</use>
					<use xlink:href="#uploadRc2" x="345.33" y="145.2" width="47" height="16">
						<title id="title1">A velocidade de upload é medida em megabits por segundo (Mbps).</title>
					</use>
					<use xlink:href="#pingSymbol" x="351.4" y="243.8" width="14.3" height="14.4"></use>
					<use xlink:href="#pingSymbol" x="481.3" y="244.6" width="14.33" height="14.4"></use>
					<use xlink:href="#pingRc3" x="367.01" y="244.68" width="28" height="16">
						<title id="title1">O ping é medido em milissegundos (ms).</title>
					</use>
					<use xlink:href="#jitterRc3" x="495.61" y="246.3" width="39.95" height="13.85">
						<title id="title1">O Jitter é medido em milissegundos (ms)</title>
					</use>
					<use xlink:href="#upSymbol" class="Symbol" x="329" y="146.5" width="11.8" height="13.9"></use>
					<use xlink:href="#downSymbol" class="Symbol" x="318.7" y="51.9" width="11.8" height="13.8"></use>
					<use xlink:href="#graphc2" x="427.84" y="134" width="200" height="135">
						<title id="title1">Mostra gráfico de tráfego de rede em tempo real para upload!</title>
					</use>
					<use xlink:href="#graphc1" x="427.84" y="35" width="200" height="135">
						<title id="title1">Mostra gráfico de tráfego de rede em tempo real para download!</title>
					</use>
					<use xlink:href="#downResultC1" x="298" y="67.21" width="200" height="45.1">
						<title id="title1">Sua velocidade de download!</title>
					</use>
					<use xlink:href="#upResultC2" x="298" y="162.13" width="200" height="45.1">
						<title id="title1">Sua velocidade de upload!</title>
					</use>
					<use xlink:href="#pingResultC3" x="303.73" y="261.55" width="200" height="45.1">
						<title id="title1">Seu ping!</title>
					</use>
					<use xlink:href="#jitterResultC3" x="420.04" y="262.17" width="200" height="45.1">
						<title id="title1">Seu jitter!</title>
					</use>
				</g>
				<g id="intro-Desk">
					<use id="logo-Desk" xlink:href="#logo" x="35" y="140" width="222.8" height="50.22"></use>
					<use id="deskStart" class="deskStart" xlink:href="#mainGaugebg" x="10.28" y="36.11" width="273.94" height="245.39"></use>
					<use xlink:href="#resultCard" class="Cards" x="307.4" y="31" width="278.1" height="85.5"></use>
					<use xlink:href="#resultCard" class="Cards" x="307.4" y="228.5" width="278.1" height="85.5"></use>
					<use xlink:href="#resultCard" class="Cards" x="307.4" y="129.3" width="278.1" height="85.5"></use>
					<use xlink:href="#downloadRc1" x="335.05" y="50.28" width="67" height="16">
						<title id="title1">A velocidade de download é medida em megabits por segundo (Mbps).</title>
					</use>
					<use xlink:href="#uploadRc2" x="345.33" y="145.2" width="47" height="16">
						<title id="title1">A velocidade de upload é medida em megabits por segundo (Mbps).</title>
					</use>
					<use xlink:href="#pingSymbol" x="351.4" y="243.8" width="14.3" height="14.4"></use>
					<use xlink:href="#pingSymbol" x="481.3" y="244.6" width="14.33" height="14.4"></use>
					<use xlink:href="#pingRc3" x="367.01" y="244.68" width="28" height="16">
						<title id="title1">O ping é medido em milissegundos (ms).</title>
					</use>
					<use xlink:href="#jitterRc3" x="495.61" y="246.3" width="39.95" height="13.85">
						<title id="title1">O Jitter é medido em milissegundos (ms).</title>
					</use>
					<use xlink:href="#upSymbol" class="Symbol" x="329" y="146.5" width="11.8" height="13.9"></use>
					<use xlink:href="#downSymbol" class="Symbol" x="318.7" y="51.9" width="11.8" height="13.8"></use>
					<use xlink:href="#graphc2" x="427.84" y="134" width="200" height="135">
						<title id="title1">Mostra gráfico de tráfego de rede em tempo real para upload!</title>
					</use>
					<use xlink:href="#graphc1" x="427.84" y="35" width="200" height="135">
						<title id="title1">Mostra gráfico de tráfego de rede em tempo real para download!</title>
					</use>
					<use xlink:href="#downResultC1" x="298" y="67.21" width="200" height="45.1">
						<title id="title1">Sua velocidade de download!</title>
					</use>
					<use xlink:href="#upResultC2" x="298" y="162.13" width="200" height="45.1">
						<title id="title1">Sua velodicade de upload!</title>
					</use>
					<use xlink:href="#pingResultC3" x="303.73" y="261.55" width="200" height="45.1">
						<title id="title1">Seu ping!</title>
					</use>
					<use xlink:href="#jitterResultC3" x="420.04" y="262.17" width="200" height="45.1">
						<title id="title1">Seu jitter!</title>
					</use>
					<use id="nightmode"  class="darkmode" onclick="toggleSkin()" xlink:href="#dark" x="10" y="25" width="30" height="30"></use>
					<use id="daymode"  class="darkmode" onclick="toggleSkin()" xlink:href="#light" x="10" y="25" width="30" height="30"></use>
					<use id="startButtonDesk" class="startButton" xlink:href="#playButton" x="125" y="300.6" width="50.2" height="50.2">
						<title id="title1">Clique aqui para executar um teste de velocidade! Ou pressione "Enter"</title>
					</use>
					<use id="settingsDesk" class="Startsettings" xlink:href="#settings" x="100" y="260" width="100" height="40">
						<title id="title1">Opções</title>
					</use>
					<use class="Desktop" id="ipDesk" xlink:href="#YourIP" x="7" y="70"></use>
				</g>
			</svg>
			<svg class="Mobile" viewBox="0 0 295.9 363.3">
				<title id="title1">Teste de velocidade de internet</title>
				<g id="UI-Mob">
					<use id="mainGaugebg-Mob" class="main-Gaugebg" xlink:href="#mainGaugebg" x="11.18" y="12" width="273.94" height="245.39"></use>
					<use id="mainGaugeBlue-Mob" class="main-GaugeBlue" xlink:href="#mainGaugeBlue" x="11.18" y="12" width="273.94" height="245.39"></use>
					<use id="mainGaugeWhite-Mob" class="main-GaugeWhite" xlink:href="#mainGaugeWhite" x="11.18" y="12" width="273.94" height="245.39"></use>
					<use xlink:href="#resultCardMob" class="Cards" x="1" y="297.52" width="88.1" height="65.8">
						<title id="title1">A velocidade de download é a rapidez com que você pode extrair dados do servidor para você na forma de imagens, vídeos, texto e muito mais. Atividades como ouvir música no Spotify, baixar arquivos grandes ou transmitir vídeos no Netflix exigem que você baixe dados.</title>
					</use>
					<use xlink:href="#resultCardMob" class="Cards" x="104.1" y="297.52" width="88.1" height="65.8">
						<title id="title1">A velocidade de upload é a rapidez com que você envia dados seus para outras pessoas na forma de imagens, vídeos, texto e muito mais. Atividades como fazer upload para o YouTube ou enviar e-mail, jogar jogos ao vivo como PubG, chamadas de voz e vídeo para um amigo exigem velocidades de upload rápidas para você enviar dados para o servidor de outra pessoa.</title>
					</use>
					<use xlink:href="#resultCardMob" class="Cards" x="207.1" y="297.52" width="88.1" height="65.8">
						<title id="title1">O "tempo de ida e volta" do ping é mais ou menos bem definido como o atraso da rede do ponto A ao B e vice-versa. Esta é a soma de todos os atrasos de codificação, enfileiramento, processamento, decodificação e propagação em ambas as direções. Essencialmente, é o atraso quando A espera uma resposta de B para uma solicitação que requer muito pouco processamento. Um ping rápido significa uma conexão mais responsiva, especialmente em aplicações onde o tempo é tudo (como videogames). O ping é medido em milissegundos (ms). Jitter é simplesmente a diferença no Ping "Round-trip time" . Em outras palavras, o jitter mede a diferença de tempo no tempo entre chegadas dos pacotes. O Jitter ajuda a diagnosticar a estabilidade da conexão com a Internet. Quanto maior o valor do jitter, pior será a estabilidade da conexão.</title>
					</use>
					<use id="upSymbolMob" xlink:href="#upSymbol" class="Mobile" x="134" y="73" width="32.21" height="41.62"></use>
					<use id="downSymbolMob" xlink:href="#downSymbol" class="Mobile" x="134" y="73" width="32.21" height="41.62"></use>
					<use id="ConnectErrorMob" xlink:href="#ConnectError" class="ConnectError" x="135.9" y="74.02" width="32.21" height="41.62"></use>
					<use class="oDo-Meter" xlink:href="#oDoMeter" x="11.18" y="12" width="273.94" height="245.39"></use>
					<use xlink:href="#progressBar" x="1.9" y="272.08" width="293.53" height="18.38"></use>
					<use id="progressStatus-Mob" class="intro-Progress" xlink:href="#introProgress" x="29" y="272" width="234.5" height="21.5"></use>
					<use xlink:href="#downloadRc1" x="22.36" y="301.63" width="60" height="15">
						<title id="title1">A velocidade de download é medida em megabits por segundo (Mbps).</title>
					</use>
					<use xlink:href="#uploadRc2" x="237.51" y="301.64" width="42" height="15">
						<title id="title1">A velocidade de upload é medida em megabits por segundo (Mbps).</title>
					</use>
					<use xlink:href="#pingRc3" x="143.88" y="301.72" width="26" height="15">
						<title id="title1">O ping é medido em milissegundos (ms).</title>
					</use>
					<use xlink:href="#upSymbol" class="Symbol" x="221.8" y="303.42" width="12.3" height="10.6"></use>
					<use xlink:href="#downSymbol" class="Symbol" x="7.7" y="303.42" width="10.6" height="12.4"></use>
					<use xlink:href="#pingSymbol" x="126.8" y="303.32" width="12.5" height="12.4"></use>
					<use id="graphMob1" xlink:href="#graphc1" x="83.1" y="160.45" width="200" height="135">
						<title id="title1">Mostra gráfico de tráfego de rede em tempo real para download!</title>
					</use>
					<use id="graphMob2" xlink:href="#graphc2" x="83.1" y="160.45" width="200" height="135">
						<title id="title1">A velocidade de upload é medida em megabits por segundo (Mbps).</title>
					</use>
					<use xlink:href="#jitterMob" x="71.14" y="317.65" width="200" height="45.1">
						<title id="title1">Seu ping e Jitter</title>
					</use>
					<use xlink:href="#upResultC2" x="182" y="317.67" width="200" height="45.1">
						<title id="title1">Sua velocidade de upload!</title>
					</use>
					<use xlink:href="#downResultC1" x="-25" y="317.64" width="200" height="45.1">
						<title id="title1">Sua velocidade de download!</title>
					</use>
				</g>
				<g id="intro-Mob">
					<use id="nightmode-Mob"  class="darkmode" onclick="toggleSkin()" xlink:href="#dark" x="10" y="25" width="30" height="30"></use>
					<use id="daymode-Mob"  class="darkmode" onclick="toggleSkin()" xlink:href="#light" x="10" y="25" width="30" height="30"></use>
					<use id="logo-Desk" xlink:href="#logo" x="38" y="110" width="218.8" height="50.22"></use>
					<use id="deskStartMob" class="deskStart" xlink:href="#mainGaugebg" x="11.18" y="12" width="273.94" height="245.39"></use>
					<use id="startButtonMob" class="startButton" xlink:href="#playButton" x="125" y="280" width="50.2" height="50.2">
						<title id="title1">Clique aqui para executar o teste</title>
					</use>
					<use id="settingsMob" class="Startsettings" xlink:href="#settings" x="100" y="240" width="100" height="40">
						<title id="title1">Opções</title>
					</use>
					<use class="Mobile" id="ipMob" xlink:href="#YourIP" x="11" y="49"></use>
				</g>
			</svg>
		</a>
		<linearGradient id="gradient" x1="0%" y1="0%" x2="0%" y2="100%">
			<stop offset="0%" stop-color="#feac14" />
			<stop offset="100%" stop-color="#feac14" />
		</linearGradient>
		<radialGradient id="RadialGradient1">
			<stop offset="0%" stop-color="#feac14" />
			<stop offset="100%" stop-color="#feac14" />
		</radialGradient>
	</svg>