<svg version="1.1" id="OpenSpeedtest"
	xmlns="http://www.w3.org/2000/svg"
	xmlns:xlink="http://www.w3.org/1999/xlink"
    class="openSpeedtestApp">
	<symbol id="logo" width="200" height="200">
		<a>
<path d="M0 0 C2.31 0 4.62 0 7 0 C7.11668214 3.87474457 7.18741231 7.74903396 7.25 11.625 C7.28351563 12.71941406 7.31703125 13.81382813 7.3515625 14.94140625 C7.4621522 24.06505622 7.4621522 24.06505622 5.296875 27.6484375 C2.10902973 30.91218385 -0.52667693 31.88453689 -5.06892395 32.24050903 C-6.21253891 32.23606781 -7.35615387 32.23162659 -8.53442383 32.22705078 C-9.85349731 32.22680908 -11.1725708 32.22656738 -12.53161621 32.22631836 C-13.92342317 32.21624917 -15.31522826 32.20591613 -16.70703125 32.1953125 C-17.97977905 32.19329834 -19.25252686 32.19128418 -20.56384277 32.18920898 C-25.3134319 32.17875325 -30.06296961 32.15083068 -34.8125 32.125 C-50.7453125 32.063125 -50.7453125 32.063125 -67 32 C-67 63.35 -67 94.7 -67 127 C-57.203125 127.04125 -47.40625 127.0825 -37.3125 127.125 C-32.68214722 127.15231201 -32.68214722 127.15231201 -27.95825195 127.18017578 C-25.50993016 127.18601734 -23.06160642 127.19111369 -20.61328125 127.1953125 C-19.34335327 127.20554443 -18.07342529 127.21577637 -16.76501465 127.22631836 C-15.54745483 127.22656006 -14.32989502 127.22680176 -13.07543945 127.22705078 C-11.49325371 127.23371262 -11.49325371 127.23371262 -9.87910461 127.24050903 C-6.85442567 126.9878393 -4.69908581 126.37355243 -2 125 C-0.6109048 122.2218096 -0.83668449 119.91465255 -0.79467773 116.80615234 C-0.77473251 115.50495453 -0.75478729 114.20375671 -0.73423767 112.86312866 C-0.71725327 111.4373995 -0.70037447 110.01166907 -0.68359375 108.5859375 C-0.66302479 107.13147387 -0.64202834 105.67701623 -0.62062073 104.2225647 C-0.56539396 100.39213912 -0.5159874 96.56165955 -0.46777344 92.73114014 C-0.4175628 88.8233153 -0.36187446 84.915569 -0.30664062 81.0078125 C-0.19905167 73.33860815 -0.09760838 65.66933855 0 58 C2.31 58 4.62 58 7 58 C7.06960586 66.89281882 7.12286485 75.7855434 7.15543652 84.67857552 C7.17107175 88.80827605 7.19227061 92.93778978 7.22631836 97.06738281 C7.25898863 101.05499983 7.27686913 105.04243751 7.28463173 109.03017807 C7.29016152 110.54918108 7.30095992 112.06817462 7.31719017 113.58710098 C7.33906711 115.71990177 7.34196275 117.85196779 7.34057617 119.98486328 C7.35056892 121.80354416 7.35056892 121.80354416 7.36076355 123.65896606 C6.95742748 127.39426444 5.95124085 129.80731022 4 133 C1.0402287 134.47988565 -1.95980606 134.13008552 -5.20361328 134.11352539 C-5.95718046 134.11364593 -6.71074764 134.11376646 -7.48715019 134.11389065 C-9.93156743 134.113143 -12.37590886 134.10552148 -14.8203125 134.09765625 C-16.3273922 134.09618637 -17.83447242 134.09516594 -19.34155273 134.09460449 C-24.93604293 134.08935691 -30.53052221 134.07539576 -36.125 134.0625 C-48.62375 134.041875 -61.1225 134.02125 -74 134 C-74 98.03 -74 62.06 -74 25 C-39.75 24.625 -39.75 24.625 -28.94433594 24.52197266 C-25.74171279 24.48205373 -25.74171279 24.48205373 -22.53912354 24.43954468 C-21.11517255 24.4218854 -19.69117071 24.40806876 -18.26715088 24.39730835 C-16.10724473 24.38023551 -13.94781509 24.35088674 -11.78808594 24.31884766 C-10.5711908 24.30552399 -9.35429565 24.29220032 -8.1005249 24.2784729 C-4.72169165 24.16535413 -4.72169165 24.16535413 -1 22 C-0.67 14.74 -0.34 7.48 0 0 Z " fill="#42403F" transform="translate(82,0)"/>
<path d="M0 0 C10 2 10 2 12.609375 2.55078125 C19.64659474 3.87313463 25.46896515 2.55790612 32.265625 0.65625 C35 0 35 0 39 0 C39.495 2.475 39.495 2.475 40 5 C26.63243244 10.67989531 15.97064219 11.26635117 2 7 C1.34 6.67 0.68 6.34 0 6 C0 4.02 0 2.04 0 0 Z " fill="#42403F" transform="translate(28,91)"/>
<path d="M0 0 C1.29550781 -0.02126953 1.29550781 -0.02126953 2.6171875 -0.04296875 C5.125 0.1875 5.125 0.1875 9.125 2.1875 C9.125 6.1475 9.125 10.1075 9.125 14.1875 C7.475 13.5275 5.825 12.8675 4.125 12.1875 C-0.4506065 11.86067096 -3.73758884 12.18148247 -7.875 14.1875 C-9.3871867 11.16312661 -9.04763369 8.52508466 -8.875 5.1875 C-7.08505455 0.32907662 -4.92552815 0.03653953 0 0 Z " fill="#42403F" transform="translate(60.875,55.8125)"/>
<path d="M0 0 C2.94658111 3.32678513 2.30836142 6.5893813 2.11328125 10.88671875 C2.05527344 11.64597656 1.99726562 12.40523437 1.9375 13.1875 C1.091875 12.8575 0.24625 12.5275 -0.625 12.1875 C-5.93599246 10.64248401 -10.71985957 10.89231444 -16.0625 12.1875 C-16.17074843 10.5848218 -16.24820645 8.98004252 -16.3125 7.375 C-16.35890625 6.48167969 -16.4053125 5.58835937 -16.453125 4.66796875 C-16.0625 2.1875 -16.0625 2.1875 -14.32421875 0.38671875 C-9.72501893 -2.05188979 -4.88767669 -1.29673055 0 0 Z " fill="#42403F" transform="translate(41.0625,56.8125)"/>
			<rect fill="transparent" x="0" y="0" width="265" height="60" />
			<title>Instituto Laura</title>
		</a>
	</symbol>
	<symbol id="mainGaugebg" viewBox="0 0 295.93 270.18">
		<path fill="none" d="M64.32,256.41a137,137,0,1,1,192.09-24.8l-.07.09a134.45,134.45,0,0,1-24.71,24.71" />
	</symbol>
	<symbol id="mainGaugeBlue" viewBox="0 0 295.93 270.18">
		<path fill="none" d="M64.32,256.41a137,137,0,1,1,192.09-24.8l-.07.09a134.45,134.45,0,0,1-24.71,24.71" />
	</symbol>
	<symbol id="mainGaugeWhite" viewBox="0 0 295.93 270.18">
		<path fill="none" d="M64.32,256.41a137,137,0,1,1,192.09-24.8l-.07.09a134.45,134.45,0,0,1-24.71,24.71" />
	</symbol>
	<symbol id="oDoMeter" viewBox="0 0 295.93 270.18">
		<text transform="translate(76.34 264.28) scale(0.9 1)">0</text>
		<text transform="translate(23.81 164.6) scale(0.9 1)">.5</text>
		<text transform="translate(50.01 80.11) scale(0.9 1)">1</text>
		<text transform="translate(140.58 36.04) scale(0.9 1)">10</text>
		<text transform="translate(220.43 79.11) scale(0.9 1)">100</text>
		<text transform="translate(246.71 164.6) scale(0.9 1)">500</text>
		<text id="oDoTopSpeed" class="oDoTop-Speed" transform="translate(220.71 265.99) scale(0.9 1)">1000+</text>
		<text id="oDoLiveSpeed" class="oDoLive-Speed" transform="translate(150 150) scale(1 1)">...</text>
		<text id="oDoLiveStatus" class="oDoLive-Status" transform="translate(151 170) scale(1 1)"></text>
	</symbol>
	<symbol id="progressBar" viewBox="0 0 293.53 18.38">
		<defs>
			<symbol id="personLeft" class="uiBg" viewBox="0 0 33.46 30.9">
				<path
            d="M32.7,4.8a7.81,7.81,0,0,1-4.1,2.8,61.42,61.42,0,0,0-5.7,2.3s-.1.3-.4,1.3-.9.6-.9.6v1.8a6.15,6.15,0,0,1,1.2,1.8,14.72,14.72,0,0,0,.8,1.7h.5c.5,0,.7,1.9.8,3.2s-1.1.8-1.1.8v3.2c0,1.9-.5,2.8-2.3,4.8s-4.7,1.8-4.7,1.8-3.1.1-4.7-1.8-2.3-3-2.3-4.8V21.1s-1.2.5-1.1-.8.3-3.2.8-3.2H10s.3-.6.8-1.7A9.62,9.62,0,0,1,12,13.6V11.8s-.8.4-.9-.6a2.26,2.26,0,0,0-.4-1.3A61.42,61.42,0,0,0,5,7.6,7.41,7.41,0,0,1,.9,4.8C.2,3.6,0,0,0,0H33.4A11.7,11.7,0,0,1,32.7,4.8Z" />
			</symbol>
			<symbol id="progressElement" class="uiBg" viewBox="0 0 409.31 10.48">
				<line id="progressbg" class="progressbg" x1="5" y1="5" x2="405" y2="5"></line>
			</symbol>
			<symbol id="doc" class="uiBg" viewBox="0 0 36.8 31.6">
				<path d="M0,31.6V21.9H36.8v9.7Zm15.1-6H5.2V28h9.9Zm16.5.3a.9.9,0,1,0,.9.9A.9.9,0,0,0,31.6,25.9Z" />
				<path d="M0,20.6V11.1H36.8v9.5Zm15.1-6H5.2v2.2h9.9Zm16.5.2a.9.9,0,1,0,.9.9A.9.9,0,0,0,31.6,14.8Z" />
				<path d="M0,9.5V0H36.8V9.5ZM15.1,3.6H5.2V5.9h9.9Zm16.5.2a.9.9,0,1,0,.9.9A.9.9,0,0,0,31.6,3.8Z" />
			</symbol>
		</defs>
		<g id="Progress">
			<g>
				<use width="33.46" height="30.9" transform="matrix(0.57, 0, 0, -0.57, 0, 17.49)" xlink:href="#personLeft" />
				<use width="409.31" height="10.48" transform="matrix(0.57, 0, 0, -0.57, 28.35, 13.39)"
            xlink:href="#progressElement" />
				<use width="36.8" height="31.6" transform="matrix(0.58, 0, 0, -0.58, 272.2, 18.38)" xlink:href="#doc" />
			</g>
		</g>
	</symbol>
	<symbol id="upSymbol" viewBox="0 0 32.21 41.62">
		<g>
			<path d="M2.71,26H9.55V38.55a2.93,2.93,0,0,0,2.78,3.07h7.13a2.94,2.94,0,0,0,2.78-3.07V26h6.84L15.89,8.8Z" />
			<rect width="32.21" height="3.41" />
		</g>
	</symbol>
	<symbol id="downSymbol" viewBox="0 0 32.21 41.62">
		<g>
			<path
          d="M29.51,15.62H22.66V3.08A2.94,2.94,0,0,0,19.88,0H12.76A2.94,2.94,0,0,0,10,3.08V15.62H3.14l13.18,17.2Z" />
			<rect y="38.21" width="32.21" height="3.41" />
		</g>
	</symbol>
	<symbol id="resultCard" viewBox="0 0 278.13 85.49">
		<g>
			<rect width="278.13" height="85.49" />
		</g>
	</symbol>
	<symbol id="resultCardMob" viewBox="0 0 88.1 65.79">
		<g>
			<rect width="88.1" height="65.79" />
		</g>
	</symbol>
	<symbol id="downloadRc1" viewBox="0 0 66.93 13.85">
		<g>
			<text transform="translate(0 10.52)" class="rtext">DOWNLOAD</text>
		</g>
	</symbol>
	<symbol id="uploadRc2" viewBox="0 0 46.73 13.85">
		<g>
			<text transform="translate(0 10.52)" class="rtext">UPLOAD</text>
		</g>
	</symbol>
	<symbol id="pingSymbol" viewBox="0 0 14.28 14.28">
		<g>
			<path
          d="M13.92.64a.55.55,0,0,0-.65.13L12.06,2A7.21,7.21,0,0,0,9.79.52a7,7,0,0,0-5.42,0,7,7,0,0,0-3.8,3.8,7,7,0,0,0,0,5.54,7.23,7.23,0,0,0,1.52,2.28,7.25,7.25,0,0,0,2.28,1.53,6.89,6.89,0,0,0,2.77.56,7.12,7.12,0,0,0,5.5-2.57.31.31,0,0,0,.07-.21.23.23,0,0,0-.09-.19L11.35,10a.36.36,0,0,0-.24-.09.27.27,0,0,0-.21.11,4.61,4.61,0,0,1-1.67,1.37,4.68,4.68,0,0,1-2.09.48,4.75,4.75,0,0,1-3.36-1.39A4.84,4.84,0,0,1,2.76,9a4.68,4.68,0,0,1-.38-1.85A4.63,4.63,0,0,1,2.76,5.3,4.74,4.74,0,0,1,5.3,2.76a4.72,4.72,0,0,1,5.09.9L9.1,4.94A.54.54,0,0,0,9,5.58.56.56,0,0,0,9.52,6h4.17a.61.61,0,0,0,.42-.17.57.57,0,0,0,.17-.42V1.19a.56.56,0,0,0-.36-.55Z"
          style="fill: #feac14" />
		</g>
	</symbol>
	<symbol id="pingRc3" viewBox="0 0 28.43 13.85">
		<g>
			<text transform="translate(0 10.52)" class="rtext">PING</text>
		</g>
	</symbol>
	<symbol id="jitterRc3" viewBox="0 0 39.95 13.85">
		<text class="rtext" transform="translate(0 9.64)">JITTER</text>
	</symbol>
	<symbol id="downResultC1" viewBox="0 0 53.35 39.8">
		<text id="downResult" transform="translate(0 20.07)" class="rtextnum">---</text>
		<text x="0" y="35" class="rtextmbms">Mbps</text>
	</symbol>
	<symbol id="upResultC2" viewBox="0 0 53.35 39.8">
		<text id="upRestxt" transform="translate(0 20.07)" class="rtextnum">---</text>
		<text x="0" y="36.09" class="rtextmbms">Mbps</text>
	</symbol>
	<symbol id="pingResultC3" viewBox="0 0 40.01 39.79">
		<text transform="translate(0 20.07)" id="pingResult" class="rtextnum">--</text>
		<text x="0" y="35" class="rtextmbms">ms</text>
	</symbol>
	<symbol id="jitterResultC3" viewBox="0 0 21.99 39.79">
		<text id="jitterDesk" transform="translate(2.33 20.07)" class="rtextnum">--</text>
		<text x="2" y="35" xml:space="preserve" class="rtextmbms">ms</text>
	</symbol>
	<symbol style="fill: url(#gradient)" id="graphc1" viewBox="0 0 200 100">
		<polygon
        points="0,50 0.00,16.91 3.51,43.13 7.03,8.17 10.54,23.80 14.05,49.71 17.57,47.57 21.08,5.73 24.59,18.61 28.11,10.03 31.62,29.77 35.14,42.97 38.65,42.85 42.16,44.34 45.68,8.71 49.19,2.56 52.70,16.48 56.22,1.10 59.73,47.04 63.24,34.75 66.76,48.00 70.27,23.19 73.78,11.62 77.30,15.34 80.81,49.09 84.32,42.92 87.84,42.99 91.35,38.99 94.86,5.15 98.38,47.27 101.89,49.66 105.41,16.49 108.92,29.03 112.43,19.89 115.95,47.80 119.46,48.13 122.97,30.92 126.49,17.38 130.00,9.27 130,50"
        class="line"></polygon>
	</symbol>
	<symbol style="fill: url(#gradient)" id="graphc2" viewBox="0 0 200 100">
		<polygon
        points="0,50 0.00,16.91 3.51,43.13 7.03,8.17 10.54,23.80 14.05,49.71 17.57,47.57 21.08,5.73 24.59,18.61 28.11,10.03 31.62,29.77 35.14,42.97 38.65,42.85 42.16,44.34 45.68,8.71 49.19,2.56 52.70,16.48 56.22,1.10 59.73,47.04 63.24,34.75 66.76,48.00 70.27,23.19 73.78,11.62 77.30,15.34 80.81,49.09 84.32,42.92 87.84,42.99 91.35,38.99 94.86,5.15 98.38,47.27 101.89,49.66 105.41,16.49 108.92,29.03 112.43,19.89 115.95,47.80 119.46,48.13 122.97,30.92 126.49,17.38 130.00,9.27 130,50"
        class="line2"></polygon>
	</symbol>
	<symbol id="jitterMob" viewBox="0 0 58.1 35.77">
		<text id="pingMobres" transform="translate(11.07 18.05)" class="rtextnum">--</text>
		<text x="-8" y="33.46" class="rtextmbms">Jitter</text>
		<text id="JitterResultMon" x="17" y="33.46" class="jitter-Mob">--</text>
		<text id="JitterResultms" x="36" y="33.46" class="rtextmbms">ms</text>
	</symbol>
	<symbol id="settings" viewBox="0 0 100 125">
		<rect fill="transparent" x="0" y="25" width="100" height="50" />
		<path d="M36.43,29.64,9.29,50,36.43,70.36v6.78L2.5,56.79V43.21L36.43,22.86Z" />
		<path d="M63.57,70.36,90.71,50,63.57,29.64V22.86L97.5,43.21V56.79L63.57,77.14Z" />
		<circle cx="29.64" cy="50" r="6.79" />
		<circle cx="50" cy="50" r="6.79" />
		<circle cx="70.36" cy="50" r="6.79" />
	</symbol>
	<symbol id="playButton" style="fill: #eaeaea" viewBox="0 0 191.255 191.255">
		<rect width="180" height="90" rx="10" ry="10" class="startButton" />
		<text class="buttonTxt" x="90" y="60">Iniciar</text>
	</symbol>
	<symbol id="introProgress" viewBox="0 0 409.31 10.48">
		<line x1="5" y1="5" x2="405" y2="5"></line>
	</symbol>
	<symbol id="ConnectError" viewBox="0 0 489.6 489.6">
		<a>
			<g>
				<g>
					<path d="M179.6,235.6c-33.7,10.3-65.5,28.5-92.2,55.1l46.6,46.6c13.9-13.9,30.1-24.8,47.6-32.5L179.6,235.6z" />
					<path d="M175.8,109C111.3,122,49.9,153.4,0,203.3l46.6,46.6c37.5-37.5,83.1-61.9,131.2-73.7L175.8,109z" />
					<path d="M313.8,109l-2,67.3c48.1,11.8,93.7,36.2,131.2,73.7l46.6-46.6C439.8,153.4,378.3,122,313.8,109z" />
					<path d="M307.9,304.8c17.5,7.7,33.7,18.6,47.7,32.6l46.6-46.6c-26.6-26.6-58.5-44.9-92.2-55.2L307.9,304.8z" />
				</g>
				<circle cx="244.8" cy="403.2" r="40" />
				<g>
					<path d="M260.6,330.4h-31.7c-8.3,0-15.1-6.6-15.3-14.9L206,62.2c-0.3-8.6,6.7-15.8,15.3-15.8h47c8.6,0,15.6,7.1,15.3,15.8
                 l-7.7,253.3C275.7,323.8,268.9,330.4,260.6,330.4z" />
				</g>
			</g>
			<title>Erro na Rede</title>
		</a>
	</symbol>
	<symbol class="Your-IP" viewBox="0 0 300 299.12">
		<text id="YourIP" transform="translate(140 228) scale(.8 .8)">Teste de velocidade da internet</text>
	</symbol>
	<symbol id="light" viewBox="0 0 512 512">
		<g>
			<path
          d="M256,108.936c-81.091,0-147.064,65.973-147.064,147.064S174.909,403.064,256,403.064S403.064,337.091,403.064,256
        S337.091,108.936,256,108.936z M256,370.383c-63.071,0-114.383-51.312-114.383-114.383c0-63.071,51.312-114.383,114.383-114.383
        c63.071,0,114.383,51.312,114.383,114.383C370.383,319.071,319.071,370.383,256,370.383z"
        />
			<path
          d="M256,83.708c9.024,0,16.34-7.316,16.34-16.34V16.34C272.34,7.316,265.024,0,256,0c-9.024,0-16.34,7.316-16.34,16.34
        v51.027C239.66,76.391,246.976,83.708,256,83.708z"
        />
			<path
          d="M256,428.292c-9.024,0-16.34,7.316-16.34,16.34v51.027c0,9.024,7.316,16.34,16.34,16.34c9.024,0,16.34-7.316,16.34-16.34
        v-51.027C272.34,435.609,265.024,428.292,256,428.292z"
        />
			<path
          d="M111.062,134.171c6.38,6.381,16.727,6.381,23.109,0c6.381-6.38,6.381-16.727,0-23.109L98.089,74.981
        c-6.38-6.381-16.727-6.381-23.109,0c-6.381,6.38-6.381,16.727,0,23.109L111.062,134.171z"
        />
			<path
          d="M400.938,377.829c-6.38-6.381-16.727-6.38-23.109,0c-6.381,6.38-6.381,16.727,0,23.109l36.081,36.082
        c6.38,6.382,16.727,6.382,23.109,0c6.382-6.38,6.382-16.727,0-23.109L400.938,377.829z"
        />
			<path
          d="M83.708,256c0-9.024-7.316-16.34-16.34-16.34H16.34C7.316,239.66,0,246.976,0,256c0,9.024,7.316,16.34,16.34,16.34
        h51.027C76.391,272.34,83.708,265.024,83.708,256z"
        />
			<path
          d="M495.66,239.66h-51.027c-9.024,0-16.34,7.316-16.34,16.34c0,9.024,7.316,16.34,16.34,16.34h51.027
        c9.024,0,16.34-7.316,16.34-16.34C512,246.976,504.684,239.66,495.66,239.66z"
        />
			<path
          d="M111.062,377.829l-36.081,36.082c-6.381,6.382-6.381,16.727,0,23.109c6.38,6.382,16.727,6.383,23.109,0l36.081-36.082
        c6.381-6.381,6.381-16.727,0-23.109C127.79,371.447,117.443,371.447,111.062,377.829z"
        />
			<path
          d="M400.938,134.171l36.081-36.082c6.382-6.381,6.382-16.727,0-23.109c-6.38-6.381-16.727-6.381-23.109,0l-36.081,36.082
        c-6.381,6.381-6.381,16.727,0,23.109C384.21,140.552,394.557,140.553,400.938,134.171z"
        />
		</g>
		<rect  fill="none" width="512" cursor="pointer" pointer-events="visible" height="512"></rect>
		</symbol>
		<symbol id="dark" viewBox="0 0 1024 1024">
			<path
        d="M524.8 938.666667h-4.266667a439.893333 439.893333 0 0 1-313.173333-134.4 446.293333 446.293333 0 0 1-11.093333-597.333334 432.213333 432.213333 0 0 1 170.666666-116.906666 42.666667 42.666667 0 0 1 45.226667 9.386666 42.666667 42.666667 0 0 1 10.24 42.666667 358.4 358.4 0 0 0 82.773333 375.893333 361.386667 361.386667 0 0 0 376.746667 82.773334 42.666667 42.666667 0 0 1 54.186667 55.04A433.493333 433.493333 0 0 1 836.266667 810.666667a438.613333 438.613333 0 0 1-311.466667 128z"
      />
		</symbol>
		<a id="resultsData">
			<svg class="Desktop" viewBox="0 0 586 346">
				<title id="title1">Teste velocidade de internet</title>
				<g id="UI-Desk">
					<use id="mainGaugebg-Desk" class="main-Gaugebg" xlink:href="#mainGaugebg" x="10.28" y="36.11" width="273.94" height="245.39"></use>
					<use id="mainGaugeBlue-Desk" class="main-GaugeBlue" xlink:href="#mainGaugeBlue" x="10.28" y="36.11" width="273.94" height="245.39"></use>
					<use id="mainGaugeWhite-Desk" class="main-GaugeWhite" xlink:href="#mainGaugeWhite" x="10.28" y="36.11" width="273.94" height="245.39"></use>
					<use xlink:href="#resultCard" class="Cards" x="307.4" y="31" width="278.1" height="85.5">
						<title id="title1">A velocidade de download é a rapidez com que você pode extrair dados do servidor para você na forma de imagens, vídeos, texto e muito mais. Atividades como ouvir música no Spotify, baixar arquivos grandes ou transmitir vídeos no Netflix exigem que você baixe dados.</title>
					</use>
					<use xlink:href="#resultCard" class="Cards" x="307.4" y="129.3" width="278.1" height="85.5">
						<title id="title1">A velocidade de upload é a rapidez com que você envia dados seus para outras pessoas na forma de imagens, vídeos, texto e muito mais. Atividades como fazer upload para o YouTube ou enviar e-mail, jogar jogos ao vivo como PubG, ligar para um amigo por voz e vídeo exigem velocidades de upload rápidas para que você possa enviar dados para o servidor de outra pessoa.</title>
					</use>
					<use xlink:href="#resultCard" class="Cards" x="307.4" y="228.5" width="278.1" height="85.5">
						<title id="title1">O "tempo de ida e volta" do ping é mais ou menos bem definido como o atraso da rede do ponto A ao B e vice-versa. Esta é a soma de todos os atrasos de codificação, enfileiramento, processamento, decodificação e propagação em ambas as direções. Essencialmente, é o atraso quando A espera uma resposta de B para uma solicitação que requer muito pouco processamento. Um ping rápido significa uma conexão mais responsiva, especialmente em aplicações onde o tempo é tudo (como videogames). O ping é medido em milissegundos (ms). Jitter é simplesmente a diferença no Ping "Round-trip time" . Em outras palavras, o jitter mede a diferença de tempo no tempo entre chegadas dos pacotes. O Jitter ajuda a diagnosticar a estabilidade da conexão com a Internet. Quanto maior o valor do jitter, pior será a estabilidade da conexão.</title>
					</use>
					<use id="downSymbolDesk" xlink:href="#downSymbol" class="Desktop" x="133" y="99" width="32.21" height="41.62"></use>
					<use id="upSymbolDesk" xlink:href="#upSymbol" class="Desktop" x="133" y="99" width="32.21" height="41.62"></use>
					<use id="ConnectErrorDesk" xlink:href="#ConnectError" class="ConnectError" x="135" y="107.8" width="32.21" height="41.62"></use>
					<use class="oDo-Meter" xlink:href="#oDoMeter" x="10.28" y="36.11" width="273.94" height="245.39"></use>
					<use xlink:href="#progressBar" x="1" y="295" width="293.53" height="18.38"></use>
					<use id="progressStatus-Desk" class="intro-Progress" xlink:href="#introProgress" x="29" y="295" width="234" height="21"></use>
					<use xlink:href="#downloadRc1" x="335.05" y="50.28" width="67" height="16">
						<title id="title1">A velocidade de download é medida em megabits por segundo (Mbps).</title>
					</use>
					<use xlink:href="#uploadRc2" x="345.33" y="145.2" width="47" height="16">
						<title id="title1">A velocidade de upload é medida em megabits por segundo (Mbps).</title>
					</use>
					<use xlink:href="#pingSymbol" x="351.4" y="243.8" width="14.3" height="14.4"></use>
					<use xlink:href="#pingSymbol" x="481.3" y="244.6" width="14.33" height="14.4"></use>
					<use xlink:href="#pingRc3" x="367.01" y="244.68" width="28" height="16">
						<title id="title1">O ping é medido em milissegundos (ms).</title>
					</use>
					<use xlink:href="#jitterRc3" x="495.61" y="246.3" width="39.95" height="13.85">
						<title id="title1">O Jitter é medido em milissegundos (ms)</title>
					</use>
					<use xlink:href="#upSymbol" class="Symbol" x="329" y="146.5" width="11.8" height="13.9"></use>
					<use xlink:href="#downSymbol" class="Symbol" x="318.7" y="51.9" width="11.8" height="13.8"></use>
					<use xlink:href="#graphc2" x="427.84" y="134" width="200" height="135">
						<title id="title1">Mostra gráfico de tráfego de rede em tempo real para upload!</title>
					</use>
					<use xlink:href="#graphc1" x="427.84" y="35" width="200" height="135">
						<title id="title1">Mostra gráfico de tráfego de rede em tempo real para download!</title>
					</use>
					<use xlink:href="#downResultC1" x="298" y="67.21" width="200" height="45.1">
						<title id="title1">Sua velocidade de download!</title>
					</use>
					<use xlink:href="#upResultC2" x="298" y="162.13" width="200" height="45.1">
						<title id="title1">Sua velocidade de upload!</title>
					</use>
					<use xlink:href="#pingResultC3" x="303.73" y="261.55" width="200" height="45.1">
						<title id="title1">Seu ping!</title>
					</use>
					<use xlink:href="#jitterResultC3" x="420.04" y="262.17" width="200" height="45.1">
						<title id="title1">Seu jitter!</title>
					</use>
				</g>
				<g id="intro-Desk">
                    <use id="logo-Desk" xlink:href="#logo" x="95" y="90" width="226.8" height="135"></use>
					<use id="deskStart" class="deskStart" xlink:href="#mainGaugebg" x="10.28" y="36.11" width="273.94" height="245.39"></use>
					<use xlink:href="#resultCard" class="Cards" x="307.4" y="31" width="278.1" height="85.5"></use>
					<use xlink:href="#resultCard" class="Cards" x="307.4" y="228.5" width="278.1" height="85.5"></use>
					<use xlink:href="#resultCard" class="Cards" x="307.4" y="129.3" width="278.1" height="85.5"></use>
					<use xlink:href="#downloadRc1" x="335.05" y="50.28" width="67" height="16">
						<title id="title1">A velocidade de download é medida em megabits por segundo (Mbps).</title>
					</use>
					<use xlink:href="#uploadRc2" x="345.33" y="145.2" width="47" height="16">
						<title id="title1">A velocidade de upload é medida em megabits por segundo (Mbps).</title>
					</use>
					<use xlink:href="#pingSymbol" x="351.4" y="243.8" width="14.3" height="14.4"></use>
					<use xlink:href="#pingSymbol" x="481.3" y="244.6" width="14.33" height="14.4"></use>
					<use xlink:href="#pingRc3" x="367.01" y="244.68" width="28" height="16">
						<title id="title1">O ping é medido em milissegundos (ms).</title>
					</use>
					<use xlink:href="#jitterRc3" x="495.61" y="246.3" width="39.95" height="13.85">
						<title id="title1">O Jitter é medido em milissegundos (ms).</title>
					</use>
					<use xlink:href="#upSymbol" class="Symbol" x="329" y="146.5" width="11.8" height="13.9"></use>
					<use xlink:href="#downSymbol" class="Symbol" x="318.7" y="51.9" width="11.8" height="13.8"></use>
					<use xlink:href="#graphc2" x="427.84" y="134" width="200" height="135">
						<title id="title1">Mostra gráfico de tráfego de rede em tempo real para upload!</title>
					</use>
					<use xlink:href="#graphc1" x="427.84" y="35" width="200" height="135">
						<title id="title1">Mostra gráfico de tráfego de rede em tempo real para download!</title>
					</use>
					<use xlink:href="#downResultC1" x="298" y="67.21" width="200" height="45.1">
						<title id="title1">Sua velocidade de download!</title>
					</use>
					<use xlink:href="#upResultC2" x="298" y="162.13" width="200" height="45.1">
						<title id="title1">Sua velodicade de upload!</title>
					</use>
					<use xlink:href="#pingResultC3" x="303.73" y="261.55" width="200" height="45.1">
						<title id="title1">Seu ping!</title>
					</use>
					<use xlink:href="#jitterResultC3" x="420.04" y="262.17" width="200" height="45.1">
						<title id="title1">Seu jitter!</title>
					</use>
					<use id="nightmode"  class="darkmode" onclick="toggleSkin()" xlink:href="#dark" x="10" y="25" width="30" height="30"></use>
					<use id="daymode"  class="darkmode" onclick="toggleSkin()" xlink:href="#light" x="10" y="25" width="30" height="30"></use>
					<use id="startButtonDesk" class="startButton" xlink:href="#playButton" x="125" y="300.6" width="50.2" height="50.2">
						<title id="title1">Clique aqui para executar um teste de velocidade! Ou pressione "Enter"</title>
					</use>
					<use id="settingsDesk" class="Startsettings" xlink:href="#settings" x="100" y="260" width="100" height="40">
						<title id="title1">Opções</title>
					</use>
					<use class="Desktop" id="ipDesk" xlink:href="#YourIP" x="7" y="70"></use>
				</g>
			</svg>
			<svg class="Mobile" viewBox="0 0 295.9 363.3">
				<title id="title1">Teste de velocidade de internet</title>
				<g id="UI-Mob">
					<use id="mainGaugebg-Mob" class="main-Gaugebg" xlink:href="#mainGaugebg" x="11.18" y="12" width="273.94" height="245.39"></use>
					<use id="mainGaugeBlue-Mob" class="main-GaugeBlue" xlink:href="#mainGaugeBlue" x="11.18" y="12" width="273.94" height="245.39"></use>
					<use id="mainGaugeWhite-Mob" class="main-GaugeWhite" xlink:href="#mainGaugeWhite" x="11.18" y="12" width="273.94" height="245.39"></use>
					<use xlink:href="#resultCardMob" class="Cards" x="1" y="297.52" width="88.1" height="65.8">
						<title id="title1">A velocidade de download é a rapidez com que você pode extrair dados do servidor para você na forma de imagens, vídeos, texto e muito mais. Atividades como ouvir música no Spotify, baixar arquivos grandes ou transmitir vídeos no Netflix exigem que você baixe dados.</title>
					</use>
					<use xlink:href="#resultCardMob" class="Cards" x="104.1" y="297.52" width="88.1" height="65.8">
						<title id="title1">A velocidade de upload é a rapidez com que você envia dados seus para outras pessoas na forma de imagens, vídeos, texto e muito mais. Atividades como fazer upload para o YouTube ou enviar e-mail, jogar jogos ao vivo como PubG, chamadas de voz e vídeo para um amigo exigem velocidades de upload rápidas para você enviar dados para o servidor de outra pessoa.</title>
					</use>
					<use xlink:href="#resultCardMob" class="Cards" x="207.1" y="297.52" width="88.1" height="65.8">
						<title id="title1">O "tempo de ida e volta" do ping é mais ou menos bem definido como o atraso da rede do ponto A ao B e vice-versa. Esta é a soma de todos os atrasos de codificação, enfileiramento, processamento, decodificação e propagação em ambas as direções. Essencialmente, é o atraso quando A espera uma resposta de B para uma solicitação que requer muito pouco processamento. Um ping rápido significa uma conexão mais responsiva, especialmente em aplicações onde o tempo é tudo (como videogames). O ping é medido em milissegundos (ms). Jitter é simplesmente a diferença no Ping "Round-trip time" . Em outras palavras, o jitter mede a diferença de tempo no tempo entre chegadas dos pacotes. O Jitter ajuda a diagnosticar a estabilidade da conexão com a Internet. Quanto maior o valor do jitter, pior será a estabilidade da conexão.</title>
					</use>
					<use id="upSymbolMob" xlink:href="#upSymbol" class="Mobile" x="134" y="73" width="32.21" height="41.62"></use>
					<use id="downSymbolMob" xlink:href="#downSymbol" class="Mobile" x="134" y="73" width="32.21" height="41.62"></use>
					<use id="ConnectErrorMob" xlink:href="#ConnectError" class="ConnectError" x="135.9" y="74.02" width="32.21" height="41.62"></use>
					<use class="oDo-Meter" xlink:href="#oDoMeter" x="11.18" y="12" width="273.94" height="245.39"></use>
					<use xlink:href="#progressBar" x="1.9" y="272.08" width="293.53" height="18.38"></use>
					<use id="progressStatus-Mob" class="intro-Progress" xlink:href="#introProgress" x="29" y="272" width="234.5" height="21.5"></use>
					<use xlink:href="#downloadRc1" x="22.36" y="301.63" width="60" height="15">
						<title id="title1">A velocidade de download é medida em megabits por segundo (Mbps).</title>
					</use>
					<use xlink:href="#uploadRc2" x="237.51" y="301.64" width="42" height="15">
						<title id="title1">A velocidade de upload é medida em megabits por segundo (Mbps).</title>
					</use>
					<use xlink:href="#pingRc3" x="143.88" y="301.72" width="26" height="15">
						<title id="title1">O ping é medido em milissegundos (ms).</title>
					</use>
					<use xlink:href="#upSymbol" class="Symbol" x="221.8" y="303.42" width="12.3" height="10.6"></use>
					<use xlink:href="#downSymbol" class="Symbol" x="7.7" y="303.42" width="10.6" height="12.4"></use>
					<use xlink:href="#pingSymbol" x="126.8" y="303.32" width="12.5" height="12.4"></use>
					<use id="graphMob1" xlink:href="#graphc1" x="83.1" y="160.45" width="200" height="135">
						<title id="title1">Mostra gráfico de tráfego de rede em tempo real para download!</title>
					</use>
					<use id="graphMob2" xlink:href="#graphc2" x="83.1" y="160.45" width="200" height="135">
						<title id="title1">A velocidade de upload é medida em megabits por segundo (Mbps).</title>
					</use>
					<use xlink:href="#jitterMob" x="71.14" y="317.65" width="200" height="45.1">
						<title id="title1">Seu ping e Jitter</title>
					</use>
					<use xlink:href="#upResultC2" x="182" y="317.67" width="200" height="45.1">
						<title id="title1">Sua velocidade de upload!</title>
					</use>
					<use xlink:href="#downResultC1" x="-25" y="317.64" width="200" height="45.1">
						<title id="title1">Sua velocidade de download!</title>
					</use>
				</g>
				<g id="intro-Mob">
					<use id="nightmode-Mob"  class="darkmode" onclick="toggleSkin()" xlink:href="#dark" x="10" y="25" width="30" height="30"></use>
					<use id="daymode-Mob"  class="darkmode" onclick="toggleSkin()" xlink:href="#light" x="10" y="25" width="30" height="30"></use>
					<use id="logo-Desk" xlink:href="#logo" x="38" y="110" width="218.8" height="50.22"></use>
					<use id="deskStartMob" class="deskStart" xlink:href="#mainGaugebg" x="11.18" y="12" width="273.94" height="245.39"></use>
					<use id="startButtonMob" class="startButton" xlink:href="#playButton" x="125" y="280" width="50.2" height="50.2">
						<title id="title1">Clique aqui para executar o teste</title>
					</use>
					<use id="settingsMob" class="Startsettings" xlink:href="#settings" x="100" y="240" width="100" height="40">
						<title id="title1">Opções</title>
					</use>
					<use class="Mobile" id="ipMob" xlink:href="#YourIP" x="11" y="49"></use>
				</g>
			</svg>
		</a>
		<linearGradient id="gradient" x1="0%" y1="0%" x2="0%" y2="100%">
			<stop offset="0%" stop-color="#feac14" />
			<stop offset="100%" stop-color="#feac14" />
		</linearGradient>
		<radialGradient id="RadialGradient1">
			<stop offset="0%" stop-color="#feac14" />
			<stop offset="100%" stop-color="#feac14" />
		</radialGradient>
	</svg>